<?xml version="1.0" encoding="UTF-8" standalone="no"?>
<!-- Created with Inkscape (http://www.inkscape.org/) -->

<svg
   width="75.723511mm"
   height="47.858093mm"
   viewBox="0 0 75.723511 47.858093"
   version="1.1"
   id="svg1"
   inkscape:version="1.3 (0e150ed6c4, 2023-07-21)"
   sodipodi:docname="n'cao filmes logo.svg"
   xmlns:inkscape="http://www.inkscape.org/namespaces/inkscape"
   xmlns:sodipodi="http://sodipodi.sourceforge.net/DTD/sodipodi-0.dtd"
   xmlns="http://www.w3.org/2000/svg"
   xmlns:svg="http://www.w3.org/2000/svg">
  <sodipodi:namedview
     id="namedview1"
     pagecolor="#ffffff"
     bordercolor="#000000"
     borderopacity="0.25"
     inkscape:showpageshadow="2"
     inkscape:pageopacity="0.0"
     inkscape:pagecheckerboard="0"
     inkscape:deskcolor="#d1d1d1"
     inkscape:document-units="mm"
     inkscape:zoom="1.0469406"
     inkscape:cx="-663.839"
     inkscape:cy="694.88183"
     inkscape:window-width="2560"
     inkscape:window-height="1009"
     inkscape:window-x="-8"
     inkscape:window-y="-8"
     inkscape:window-maximized="1"
     inkscape:current-layer="layer1"
     showguides="true">
    <sodipodi:guide
       position="134.58617,368.54348"
       orientation="0,-1"
       id="guide4"
       inkscape:locked="false" />
    <sodipodi:guide
       position="137.98148,350.49474"
       orientation="0,-1"
       id="guide5"
       inkscape:locked="false" />
  </sodipodi:namedview>
  <defs
     id="defs1">
    <linearGradient
       id="swatch15"
       inkscape:swatch="solid">
      <stop
         style="stop-color:#000000;stop-opacity:1;"
         offset="0"
         id="stop15" />
    </linearGradient>
  </defs>
  <g
     inkscape:label="Camada 1"
     inkscape:groupmode="layer"
     id="layer1"
     transform="translate(295.7739,-216.11207)">
    <rect
       style="fill:#000000;stroke-width:1.4875;stroke-dasharray:none;paint-order:stroke markers fill"
       id="rect3-6-4-8-9-9"
       width="59.401966"
       height="33.383118"
       x="-279.46283"
       y="230.58704"
       ry="6.1093287"
       inkscape:export-filename="..\..\..\..\Logos\filmes_normal.svg"
       inkscape:export-xdpi="300"
       inkscape:export-ydpi="300" />
    <g
       id="g15-0-7-5-2-4"
       transform="translate(-341.60767,212.80527)">
      <rect
         style="fill:#ffffff;fill-opacity:1;stroke-width:1.47789;stroke-dasharray:none;paint-order:stroke markers fill"
         id="rect15-7-5-4-9-1"
         width="59.347813"
         height="8.341363"
         x="62.165733"
         y="17.848383"
         ry="1.8071964" />
      <path
         id="rect4-3-7-97-0-0-0"
         style="fill:#000000;stroke-width:0.747593;paint-order:stroke markers fill"
         inkscape:transform-center-x="23.810202"
         inkscape:transform-center-y="0.12575912"
         d="m 120.01797,17.848309 c 0.85438,0.001 1.54105,0.689838 1.53931,1.544216 l -0.011,5.342299 c -0.002,0.854379 -0.69086,1.541873 -1.54525,1.540862 l -3.38015,-0.0038 1.89428,-8.425111 z m -7.4874,-0.0091 -1.89428,8.425627 -5.17797,-0.0065 1.89427,-8.425109 z m -11.1621,-0.01292 -1.894286,8.425109 -5.539695,-0.0066 1.894284,-8.425107 z m -11.523308,-0.01406 -1.8948,8.42511 -5.53972,-0.0061 1.894296,-8.425625 z m -11.524353,-0.01306 -1.893775,8.424596 -5.54022,-0.0066 1.894801,-8.424593 z m -11.523847,-0.01406 -1.894277,8.425108 -1.219054,-0.0016 c -0.854372,-0.001 -1.540533,-0.689321 -1.538799,-1.543698 l 0.0104,-5.342817 c 0.0017,-0.854385 0.690867,-1.541354 1.545257,-1.540346 z" />
    </g>
    <g
       id="g15-0-6-3-7-3-4"
       transform="matrix(-0.99370779,0.11200373,0.11200373,0.99370779,-161.11609,191.31764)"
       inkscape:transform-center-x="-26.103666"
       inkscape:transform-center-y="-2.9422579">
      <rect
         style="fill:#ffffff;fill-opacity:1;stroke-width:1.47767;stroke-dasharray:none;paint-order:stroke markers fill"
         id="rect15-7-8-3-8-5-5"
         width="59.329636"
         height="8.341363"
         x="62.165733"
         y="17.848383"
         ry="1.8071964" />
      <path
         id="rect4-3-7-9-5-0-5-5"
         style="fill:#000000;stroke-width:0.747593;paint-order:stroke markers fill"
         inkscape:transform-center-x="23.810202"
         inkscape:transform-center-y="0.12575912"
         d="m 120.01797,17.848309 c 0.85438,0.001 1.54105,0.689838 1.53931,1.544216 l -0.011,5.342299 c -0.002,0.854379 -0.69086,1.541873 -1.54525,1.540862 l -3.38015,-0.0038 1.89428,-8.425111 z m -7.4874,-0.0091 -1.89428,8.425627 -5.17797,-0.0065 1.89427,-8.425109 z m -11.1621,-0.01292 -1.894286,8.425109 -5.539695,-0.0066 1.894284,-8.425107 z m -11.523308,-0.01406 -1.8948,8.42511 -5.53972,-0.0061 1.894296,-8.425625 z m -11.524353,-0.01306 -1.893775,8.424596 -5.54022,-0.0066 1.894801,-8.424593 z m -11.523847,-0.01406 -1.894277,8.425108 -1.219054,-0.0016 c -0.854372,-0.001 -1.540533,-0.689321 -1.538799,-1.543698 l 0.0104,-5.342817 c 0.0017,-0.854385 0.690867,-1.541354 1.545257,-1.540346 z" />
    </g>
    <path
       d="m -266.52138,250.62613 v 24.05899 h -5.48349 l -3.25443,-10.93725 v 10.93725 h -5.23086 v -24.05899 h 5.23086 l 3.50705,10.83323 v -10.83323 z"
       id="text1-5-2-7-0-0"
       style="font-size:30.4341px;line-height:1;font-family:Impact;-inkscape-font-specification:'Impact, Normal';text-align:justify;letter-spacing:0.00570641px;stroke:#ffffff;stroke-width:0.5;paint-order:stroke markers fill"
       transform="scale(1.0535504,0.94917149)"
       aria-label="N" />
    <path
       d="m -232.17286,272.06442 v 0.36659 h -2.45021 v 1.64809 h 1.84862 v 0.36659 h -1.84862 v 2.29668 h -0.42299 v -4.67795 z m 1.34537,1.4695 v 3.20845 h -0.39793 v -3.20845 z m 0.094,-1.2909 v 0.59845 h -0.58905 v -0.59845 z m 1.58976,-0.2632 v 4.76255 h -0.39792 v -4.76255 z m 1.66496,1.5541 v 0.59531 q 0.50132,-0.67365 1.08411,-0.67365 0.35092,0 0.58905,0.21307 0.2068,0.18172 0.24439,0.45432 0.48879,-0.66739 1.09038,-0.66739 0.42299,0 0.66111,0.2726 0.21306,0.24126 0.21306,0.63291 v 2.38128 h -0.39792 v -2.21521 q 0,-0.71125 -0.58592,-0.71125 -0.26632,0 -0.54205,0.20679 -0.23186,0.17546 -0.41359,0.46059 v 2.25908 h -0.39792 v -2.21521 q 0,-0.71125 -0.56399,-0.71125 -0.26632,0 -0.53578,0.19739 -0.24126,0.17233 -0.43239,0.46999 v 2.25908 h -0.39166 v -3.20845 z m 7.65888,1.63555 h -2.32801 q 0,0.67365 0.32586,1.03711 0.27259,0.30079 0.69558,0.30079 0.69245,0 0.90864,-0.68931 l 0.37286,0.14099 q -0.33213,0.86165 -1.28777,0.86165 -0.67365,0 -1.06217,-0.51072 -0.34466,-0.45119 -0.34466,-1.16557 0,-0.81465 0.44179,-1.28777 0.37286,-0.40106 0.93058,-0.40106 0.63605,0 1.01204,0.49192 0.33526,0.43866 0.33526,1.11858 z m -0.39793,-0.30079 q -0.0439,-0.55772 -0.32586,-0.84598 -0.24126,-0.24752 -0.61725,-0.24752 -0.43238,0 -0.70184,0.33525 -0.23813,0.2914 -0.2726,0.75825 z m 3.59191,-0.65485 -0.38539,0.13473 q -0.18173,-0.57965 -0.78331,-0.57965 -0.36346,0 -0.56085,0.1598 -0.1692,0.13786 -0.1692,0.35405 0,0.26946 0.1692,0.39793 0.15039,0.11593 0.53578,0.20052 l 0.25693,0.0564 q 0.59532,0.13787 0.81778,0.36346 0.20366,0.20366 0.20366,0.57652 0,0.44179 -0.34152,0.69871 -0.32273,0.2444 -0.87731,0.2444 -0.96818,0 -1.26584,-0.77705 l 0.38539,-0.14726 q 0.21306,0.61098 0.88671,0.61098 0.44492,0 0.65799,-0.20366 0.16292,-0.15666 0.16292,-0.38852 0,-0.29766 -0.16919,-0.42926 -0.1598,-0.1222 -0.59532,-0.21933 l -0.25693,-0.0595 q -0.56711,-0.12846 -0.77704,-0.36346 -0.17233,-0.19112 -0.17233,-0.52638 0,-0.40419 0.31646,-0.63919 0.29452,-0.22246 0.79898,-0.22246 0.86791,0 1.16243,0.75825 z"
       id="text2-9-9-6-0-4"
       style="font-size:6.4169px;line-height:1;font-family:'Yu Gothic';-inkscape-font-specification:'Yu Gothic, Normal';text-align:justify;letter-spacing:0.00120317px;fill:#ffffff;stroke-width:0.365611;paint-order:stroke markers fill"
       transform="scale(1.0513679,0.95114184)"
       aria-label="Filmes" />
    <path
       d="m -261.22724,243.25947 2.6174,17.5833 h -4.68092 l -0.22807,-3.16043 h -1.63995 l -0.27151,3.16043 h -4.73522 l 2.32416,-17.5833 z m -2.42192,11.30588 q -0.34754,-2.98666 -0.69507,-7.37435 -0.69508,5.03932 -0.86885,7.37435 z m 11.49468,6.63582 v 0.20635 q 0.58648,0 1.0752,0.38013 0.48873,0.39098 0.48873,1.05347 0,0.82541 -0.67336,1.42274 -0.67335,0.60819 -1.60736,0.60819 -1.69426,0 -2.16126,-1.71597 h 1.60737 q 0.15204,0.45615 0.54302,0.45615 0.32582,0 0.47787,-0.16291 0.16291,-0.16291 0.16291,-0.48873 0,-0.3584 -0.22807,-0.54303 -0.21721,-0.17377 -0.67336,-0.17377 h -0.28237 v -1.08606 q -1.85717,-0.17377 -2.89978,-1.01003 -1.03176,-0.84713 -1.33586,-2.05266 -0.29323,-1.21638 -0.29323,-3.49711 v -5.13706 q 0,-1.90061 0.13032,-2.84548 0.13033,-0.95573 0.77111,-1.83544 0.65163,-0.87971 1.79199,-1.37929 1.15123,-0.51045 2.63913,-0.51045 2.02007,0 3.3342,0.78196 1.31413,0.78196 1.72684,1.95491 0.4127,1.16208 0.4127,3.62744 v 1.67253 h -4.57231 v -3.06269 q 0,-1.33585 -0.15205,-1.66167 -0.14119,-0.33668 -0.64077,-0.33668 -0.56476,0 -0.7168,0.40184 -0.15205,0.40185 -0.15205,1.7377 v 8.16717 q 0,1.28155 0.15205,1.67253 0.15204,0.39098 0.68421,0.39098 0.51045,0 0.6625,-0.39098 0.16291,-0.39098 0.16291,-1.83544 v -2.2047 h 4.57231 v 0.68421 q 0,2.53052 -0.3041,3.6383 -0.30409,1.09692 -1.50962,2.03094 -1.19467,0.92315 -3.19302,1.04261 z m 14.54651,-17.9417 2.61741,17.5833 h -4.68092 l -0.22807,-3.16043 h -1.63995 l -0.27152,3.16043 h -4.73522 l 2.32417,-17.5833 z m -2.42191,11.30588 q -0.34754,-2.98666 -0.69508,-7.37435 -0.69507,5.03932 -0.86884,7.37435 z m 3.70346,-13.92328 q -0.49958,1.09692 -1.22724,1.53134 -0.72766,0.43442 -1.28155,0.43442 -0.77111,0 -1.66167,-0.3584 l -0.80369,-0.31495 q -0.7711,-0.31496 -1.15122,-0.31496 -0.80369,0 -1.32499,1.08606 l -1.71598,-1.14036 q 1.19467,-2.10696 2.69343,-2.10696 0.78196,0 1.70511,0.34754 l 0.67336,0.24979 q 0.84713,0.31496 1.15122,0.31496 0.90143,0 1.19467,-0.97745 z m 12.56988,12.91324 q 0,2.64999 -0.13032,3.75777 -0.11947,1.09692 -0.78197,2.00921 -0.65163,0.91229 -1.77027,1.40102 -1.11864,0.48872 -2.60655,0.48872 -1.41187,0 -2.54137,-0.45614 -1.11865,-0.46701 -1.80286,-1.39016 -0.68422,-0.92315 -0.81455,-2.00921 -0.13033,-1.08606 -0.13033,-3.80121 v -3.00838 q 0,-2.64999 0.11947,-3.74691 0.13033,-1.10778 0.78196,-2.02007 0.6625,-0.91229 1.78114,-1.40101 1.11864,-0.48873 2.60654,-0.48873 1.41188,0 2.53052,0.467 1.12951,0.45615 1.81372,1.3793 0.68422,0.92315 0.81455,2.00921 0.13032,1.08606 0.13032,3.80121 z m -4.57231,-5.77783 q 0,-1.22725 -0.14118,-1.56393 -0.13033,-0.34754 -0.55389,-0.34754 -0.3584,0 -0.55389,0.28238 -0.18463,0.27151 -0.18463,1.62909 v 8.21061 q 0,1.53134 0.11946,1.88974 0.13033,0.3584 0.58647,0.3584 0.46701,0 0.59734,-0.4127 0.13032,-0.4127 0.13032,-1.96577 z"
       id="text6-1-3-3-1-9"
       style="font-size:22.2425px;line-height:1;font-family:Impact;-inkscape-font-specification:'Impact, Normal';text-align:justify;letter-spacing:0.00417046px;fill:#ffffff;stroke:#000000;stroke-width:0.19;paint-order:stroke markers fill"
       transform="scale(1.011341,0.98878617)"
       aria-label="AÇÃO" />
    <circle
       style="fill:#cc0000;fill-opacity:1;stroke:none;stroke-width:1.51;stroke-opacity:1;paint-order:stroke markers fill"
       id="path4-7-3"
       cx="-275.4292"
       cy="242.79022"
       r="2.2744844" />
  </g>
</svg>
